<svg width="115" height="54" fill="none" xmlns="http://www.w3.org/2000/svg"><path d="M52.597 20.141A26.5 26.5 0 111.404 33.86a26.5 26.5 0 0151.193-13.72h0z" stroke="#DBE2E4"/><path d="M13.386 31v-9.8h1.036l6.174 7.854V21.2h1.078V31h-.882l-6.328-8.036V31h-1.078zm11.523-3.178c.074.737.35 1.325.826 1.764.485.43 1.059.644 1.721.644.869 0 1.63-.34 2.282-1.022l.672.602c-.811.905-1.805 1.358-2.982 1.358-1.017 0-1.876-.35-2.576-1.05-.69-.71-1.035-1.62-1.035-2.73 0-1.055.33-1.946.994-2.674.662-.737 1.488-1.106 2.477-1.106 1.037 0 1.858.364 2.465 1.092.606.728.91 1.643.91 2.744 0 .14-.005.266-.015.378h-5.74zm0-.868h4.662c-.066-.7-.3-1.279-.7-1.736-.392-.467-.93-.7-1.61-.7-.616 0-1.144.229-1.582.686-.44.457-.696 1.04-.77 1.75zm10.3 4.2c-.858 0-1.535-.261-2.03-.784-.494-.532-.741-1.237-.741-2.114v-4.494h1.078v4.228c0 .681.172 1.218.518 1.61.354.383.849.574 1.484.574.625 0 1.143-.21 1.554-.63.41-.42.616-.966.616-1.638v-4.144h1.064V31h-1.064v-1.26c-.588.943-1.414 1.414-2.478 1.414zM41.178 31v-7.238h1.078v1.89a3.656 3.656 0 011.19-1.498 2.717 2.717 0 011.764-.518v1.162h-.084c-.831 0-1.517.29-2.058.868-.542.579-.812 1.395-.812 2.45V31h-1.078zm11.365-.938c-.728.737-1.629 1.106-2.702 1.106s-1.97-.369-2.688-1.106c-.71-.737-1.064-1.629-1.064-2.674 0-1.036.36-1.923 1.078-2.66.728-.747 1.629-1.12 2.702-1.12s1.97.369 2.688 1.106c.719.737 1.078 1.629 1.078 2.674 0 1.036-.364 1.927-1.092 2.674zm-2.674.14c.775 0 1.41-.27 1.904-.812.504-.541.756-1.209.756-2.002 0-.784-.261-1.451-.784-2.002a2.499 2.499 0 00-1.904-.826c-.775 0-1.41.275-1.904.826-.495.541-.742 1.209-.742 2.002 0 .784.257 1.451.77 2.002a2.52 2.52 0 001.904.812zm6.335.798v-7.238h1.078v1.89a3.657 3.657 0 011.19-1.498 2.717 2.717 0 011.764-.518v1.162h-.084c-.83 0-1.517.29-2.058.868-.541.579-.812 1.395-.812 2.45V31h-1.078zm6.003-3.178c.075.737.35 1.325.826 1.764.486.43 1.06.644 1.722.644.868 0 1.629-.34 2.282-1.022l.672.602c-.812.905-1.806 1.358-2.982 1.358-1.017 0-1.876-.35-2.576-1.05-.69-.71-1.036-1.62-1.036-2.73 0-1.055.332-1.946.994-2.674.663-.737 1.489-1.106 2.478-1.106 1.036 0 1.858.364 2.464 1.092.607.728.91 1.643.91 2.744 0 .14-.004.266-.014.378h-5.74zm0-.868h4.662c-.065-.7-.298-1.279-.7-1.736-.392-.467-.928-.7-1.61-.7-.616 0-1.143.229-1.582.686-.438.457-.695 1.04-.77 1.75zm10.036 4.186a4.876 4.876 0 01-1.596-.28 4.856 4.856 0 01-1.4-.784l.546-.77c.82.616 1.656.924 2.505.924.44 0 .799-.107 1.078-.322.28-.215.42-.5.42-.854 0-.327-.154-.579-.462-.756-.298-.177-.746-.35-1.344-.518a9.748 9.748 0 01-.867-.28 6.269 6.269 0 01-.729-.35 1.588 1.588 0 01-.602-.588 1.776 1.776 0 01-.195-.854c0-.616.228-1.115.686-1.498.466-.383 1.059-.574 1.778-.574.933 0 1.8.266 2.603.798l-.49.812c-.718-.467-1.432-.7-2.142-.7-.42 0-.76.103-1.022.308a.93.93 0 00-.378.77c0 .13.038.252.112.364.075.112.16.205.252.28.094.075.239.154.434.238.206.084.37.145.49.182.122.037.313.098.575.182.345.103.63.2.853.294.225.093.463.22.715.378.251.159.438.36.56.602.13.233.195.509.195.826 0 .672-.242 1.204-.727 1.596-.486.383-1.102.574-1.848.574zm10.584-1.078c-.728.737-1.629 1.106-2.702 1.106s-1.97-.369-2.688-1.106c-.71-.737-1.064-1.629-1.064-2.674 0-1.036.36-1.923 1.078-2.66.728-.747 1.629-1.12 2.702-1.12s1.97.369 2.688 1.106c.719.737 1.078 1.629 1.078 2.674 0 1.036-.364 1.927-1.092 2.674zm-2.674.14c.775 0 1.41-.27 1.904-.812.504-.541.756-1.209.756-2.002 0-.784-.261-1.451-.784-2.002a2.499 2.499 0 00-1.904-.826c-.775 0-1.41.275-1.904.826-.495.541-.742 1.209-.742 2.002 0 .784.257 1.451.77 2.002a2.52 2.52 0 001.904.812zm8.379.952c-.859 0-1.535-.261-2.03-.784-.495-.532-.742-1.237-.742-2.114v-4.494h1.078v4.228c0 .681.173 1.218.518 1.61.355.383.85.574 1.484.574.625 0 1.143-.21 1.554-.63.41-.42.616-.966.616-1.638v-4.144h1.064V31H91.01v-1.26c-.588.943-1.414 1.414-2.478 1.414zM94.499 31v-7.238h1.078v1.89a3.657 3.657 0 011.19-1.498 2.718 2.718 0 011.764-.518v1.162h-.084c-.83 0-1.517.29-2.058.868-.541.579-.812 1.395-.812 2.45V31h-1.078zm8.621.168c-1.045 0-1.927-.369-2.646-1.106a3.749 3.749 0 01-1.064-2.674c0-1.036.355-1.923 1.064-2.66.719-.747 1.601-1.12 2.646-1.12 1.12 0 2.086.43 2.898 1.288l-.686.728c-.672-.71-1.414-1.064-2.226-1.064-.728 0-1.344.275-1.848.826-.494.541-.742 1.209-.742 2.002 0 .784.252 1.451.756 2.002a2.52 2.52 0 001.904.812c.775 0 1.503-.364 2.184-1.092l.714.658c-.84.933-1.824 1.4-2.954 1.4zm5.175-3.346c.075.737.35 1.325.826 1.764.486.43 1.06.644 1.722.644.868 0 1.629-.34 2.282-1.022l.672.602c-.812.905-1.806 1.358-2.982 1.358-1.017 0-1.876-.35-2.576-1.05-.69-.71-1.036-1.62-1.036-2.73 0-1.055.332-1.946.994-2.674.663-.737 1.489-1.106 2.478-1.106 1.036 0 1.858.364 2.464 1.092.607.728.91 1.643.91 2.744 0 .14-.004.266-.014.378h-5.74zm0-.868h4.662c-.065-.7-.298-1.279-.7-1.736-.392-.467-.928-.7-1.61-.7-.616 0-1.143.229-1.582.686-.438.457-.695 1.04-.77 1.75z" fill="#DBE2E4"/></svg>