<svg xmlns="http://www.w3.org/2000/svg">
    <symbol id="okay-arrow" viewBox="0 0 11 11" fill="none">
        <path d="M1.5 4.5L4.57364 9.16345C4.82315 9.54202 5.38625 9.5177 5.60219 9.11903L10 1" stroke="#DBE2E4" stroke-width="1.5" stroke-linecap="round"/>
    </symbol>

    <symbol id="home-logo" viewBox="0 0 10 10" fill="none">
        <path d="M9 8.24967V5.11927C9.00002 4.90148 8.95558 4.68598 8.8694 4.48596C8.78322 4.28595 8.65711 4.10564 8.4988 3.95607L5.5496 1.16887C5.40106 1.02844 5.20441 0.950195 5 0.950195C4.79559 0.950195 4.59894 1.02844 4.4504 1.16887L1.5012 3.95607C1.34289 4.10564 1.21678 4.28595 1.1306 4.48596C1.04442 4.68598 0.999977 4.90148 1 5.11927V8.24967C1 8.46184 1.08429 8.66533 1.23431 8.81535C1.38434 8.96538 1.58783 9.04967 1.8 9.04967H8.2C8.41217 9.04967 8.61566 8.96538 8.76569 8.81535C8.91571 8.66533 9 8.46184 9 8.24967Z" stroke="#DBE2E4" stroke-opacity="0.6" stroke-width="1.5" stroke-linecap="round" stroke-linejoin="round"/>
    </symbol>
    
    <symbol id="arrow-right" viewBox="0 0 8 15" fill="none">
        <path d="M1.17033 0.998747C1.31972 0.998239 1.46733 1.03121 1.60231 1.09524C1.73729 1.15927 1.85621 1.25273 1.95033 1.36875L6.78033 7.36875C6.92741 7.54768 7.00781 7.77212 7.00781 8.00375C7.00781 8.23537 6.92741 8.45982 6.78033 8.63875L1.78032 14.6387C1.61059 14.843 1.36667 14.9714 1.10225 14.9958C0.837822 15.0201 0.574541 14.9385 0.370325 14.7687C0.166108 14.599 0.037684 14.3551 0.0133043 14.0907C-0.0110754 13.8262 0.0705859 13.563 0.240325 13.3587L4.71033 7.99875L0.390326 2.63875C0.268043 2.49196 0.190366 2.31322 0.166486 2.12367C0.142607 1.93412 0.173524 1.7417 0.25558 1.56917C0.337636 1.39664 0.467396 1.25123 0.629506 1.15014C0.791616 1.04905 0.979292 0.996516 1.17033 0.998747Z" fill="#E4E4E4"/>
    </symbol>

    <symbol id="arrow-left" viewBox="0 0 8 15" fill="none">
        <path d="M6.82967 0.998747C6.68028 0.998239 6.53267 1.03121 6.39769 1.09524C6.26271 1.15927 6.14379 1.25273 6.04967 1.36875L1.21967 7.36875C1.07259 7.54768 0.992187 7.77212 0.992187 8.00375C0.992187 8.23537 1.07259 8.45982 1.21967 8.63875L6.21968 14.6387C6.38941 14.843 6.63333 14.9714 6.89775 14.9958C7.16218 15.0201 7.42546 14.9385 7.62968 14.7687C7.83389 14.599 7.96232 14.3551 7.9867 14.0907C8.01108 13.8262 7.92941 13.563 7.75968 13.3587L3.28967 7.99875L7.60967 2.63875C7.73196 2.49196 7.80963 2.31322 7.83351 2.12367C7.85739 1.93412 7.82648 1.7417 7.74442 1.56917C7.66236 1.39664 7.5326 1.25123 7.37049 1.15014C7.20838 1.04905 7.02071 0.996516 6.82967 0.998747Z" fill="#E4E4E4"/>
    </symbol>

    <symbol id="arrow-up" viewBox="0 0 15 7" fill="none">
        <path d="M14.0013 5.83749C14.0018 5.68809 13.9688 5.54048 13.9048 5.4055C13.8407 5.27053 13.7473 5.15161 13.6313 5.05749L7.63125 0.227488C7.45232 0.0804066 7.22788 3.15941e-07 6.99625 3.05816e-07C6.76463 2.95691e-07 6.54018 0.0804065 6.36125 0.227488L0.361252 5.22749C0.157035 5.39723 0.028611 5.64114 0.00423124 5.90556C-0.0201485 6.16999 0.0615134 6.43327 0.231252 6.63749C0.40099 6.8417 0.644902 6.97013 0.909328 6.99451C1.17375 7.01889 1.43704 6.93723 1.64125 6.76749L7.00125 2.29749L12.3613 6.61749C12.508 6.73977 12.6868 6.81745 12.8763 6.84133C13.0659 6.86521 13.2583 6.83429 13.4308 6.75223C13.6034 6.67018 13.7488 6.54042 13.8499 6.37831C13.9509 6.2162 14.0035 6.02852 14.0013 5.83749Z" fill="#E4E4E4"/>
    </symbol>

    <symbol id="arrow-down" viewBox="0 0 15 8" fill="none">
        <path d="M0.998748 1.17032C0.99824 1.31972 1.03121 1.46733 1.09524 1.60231C1.15927 1.73729 1.25273 1.85621 1.36875 1.95032L7.36875 6.78032C7.54768 6.92741 7.77212 7.00781 8.00375 7.00781C8.23537 7.00781 8.45982 6.92741 8.63875 6.78032L14.6387 1.78032C14.843 1.61059 14.9714 1.36667 14.9958 1.10225C15.0201 0.837822 14.9385 0.574541 14.7687 0.370325C14.599 0.166108 14.3551 0.037684 14.0907 0.0133042C13.8262 -0.0110755 13.563 0.0705857 13.3587 0.240324L7.99875 4.71032L2.63875 0.390325C2.49196 0.268042 2.31322 0.190365 2.12367 0.166485C1.93413 0.142606 1.7417 0.173522 1.56917 0.255578C1.39665 0.337634 1.25123 0.467394 1.15014 0.629505C1.04905 0.791615 0.996516 0.979291 0.998748 1.17032Z" fill="#E4E4E4"/>
    </symbol>

    <symbol id="question-logo" viewBox="0 0 12 18" fill="none">
        <path d="M0.960938 4.92188C1.03125 3.58594 1.50391 2.49609 2.37891 1.65234C3.26172 0.800781 4.49219 0.375 6.07031 0.375C7.53125 0.375 8.72266 0.777344 9.64453 1.58203C10.5742 2.38672 11.0391 3.39844 11.0391 4.61719C11.0391 6.32812 10.2227 7.67578 8.58984 8.66016C7.85547 9.09766 7.35156 9.51172 7.07812 9.90234C6.8125 10.293 6.67969 10.8008 6.67969 11.4258V12.1875H4.62891V11.1094C4.62109 10.3438 4.80469 9.67969 5.17969 9.11719C5.5625 8.55469 6.16016 8.03125 6.97266 7.54688C7.66016 7.125 8.14453 6.70312 8.42578 6.28125C8.71484 5.85938 8.85938 5.33984 8.85938 4.72266C8.85938 3.98828 8.59375 3.38672 8.0625 2.91797C7.53906 2.44141 6.84766 2.20312 5.98828 2.20312C5.10547 2.20312 4.39453 2.44531 3.85547 2.92969C3.32422 3.41406 3.02734 4.07812 2.96484 4.92188H0.960938ZM6.97266 17.168C6.67578 17.4727 6.28906 17.625 5.8125 17.625C5.33594 17.625 4.94531 17.4727 4.64062 17.168C4.33594 16.8633 4.18359 16.4727 4.18359 15.9961C4.18359 15.5195 4.33594 15.1289 4.64062 14.8242C4.94531 14.5117 5.33594 14.3555 5.8125 14.3555C6.28906 14.3555 6.67578 14.5078 6.97266 14.8125C7.27734 15.1172 7.42969 15.5117 7.42969 15.9961C7.42969 16.4727 7.27734 16.8633 6.97266 17.168Z" fill="#E4E4E4"/>
    </symbol>

    <symbol id="cross-logo" viewBox="0 0 20 20" fill="none">
        <path d="M19 1L1 19" stroke="#DBE2E4"/>
        <path d="M19 19L1 1" stroke="#DBE2E4"/>
    </symbol>

    <symbol id="cross-logo-dark" viewBox="0 0 20 20" fill="none">
        <path d="M19 1L1 19" stroke="#191B1D"/>
        <path d="M19 19L1 1" stroke="#191B1D"/>
    </symbol>
</svg>