<svg width="115" height="54" viewBox="0 0 115 54" fill="none" xmlns="http://www.w3.org/2000/svg">
<path d="M52.597 20.1413C54.4161 26.9301 53.4638 34.1634 49.9497 40.25C46.4356 46.3366 40.6475 50.778 33.8587 52.597C27.0699 54.4161 19.8366 53.4638 13.75 49.9497C7.66337 46.4356 3.22201 40.6475 1.40297 33.8587C-0.416076 27.0699 0.536209 19.8366 4.05033 13.75C7.56445 7.66337 13.3525 3.22201 20.1413 1.40297C26.9301 -0.416076 34.1634 0.536208 40.25 4.05033C46.3366 7.56444 50.778 13.3525 52.597 20.1413L52.597 20.1413Z" stroke="#DBE2E4"/>
<path d="M13.386 31V21.2H14.422L20.596 29.054V21.2H21.674V31H20.792L14.464 22.964V31H13.386ZM24.9085 27.822C24.9832 28.5593 25.2585 29.1473 25.7345 29.586C26.2199 30.0153 26.7939 30.23 27.4565 30.23C28.3245 30.23 29.0852 29.8893 29.7385 29.208L30.4105 29.81C29.5985 30.7153 28.6045 31.168 27.4285 31.168C26.4112 31.168 25.5525 30.818 24.8525 30.118C24.1619 29.4087 23.8165 28.4987 23.8165 27.388C23.8165 26.3333 24.1479 25.442 24.8105 24.714C25.4732 23.9767 26.2992 23.608 27.2885 23.608C28.3245 23.608 29.1459 23.972 29.7525 24.7C30.3592 25.428 30.6625 26.3427 30.6625 27.444C30.6625 27.584 30.6579 27.71 30.6485 27.822H24.9085ZM24.9085 26.954H29.5705C29.5052 26.254 29.2719 25.6753 28.8705 25.218C28.4785 24.7513 27.9419 24.518 27.2605 24.518C26.6445 24.518 26.1172 24.7467 25.6785 25.204C25.2399 25.6613 24.9832 26.2447 24.9085 26.954ZM35.2097 31.154C34.351 31.154 33.6744 30.8927 33.1797 30.37C32.685 29.838 32.4377 29.1333 32.4377 28.256V23.762H33.5157V27.99C33.5157 28.6713 33.6884 29.208 34.0337 29.6C34.3884 29.9827 34.883 30.174 35.5177 30.174C36.143 30.174 36.661 29.964 37.0717 29.544C37.4824 29.124 37.6877 28.578 37.6877 27.906V23.762H38.7517V31H37.6877V29.74C37.0997 30.6827 36.2737 31.154 35.2097 31.154ZM41.1767 31V23.762H42.2547V25.652C42.5347 25.0267 42.9313 24.5273 43.4447 24.154C43.958 23.7807 44.546 23.608 45.2087 23.636V24.798H45.1247C44.294 24.798 43.608 25.0873 43.0667 25.666C42.5253 26.2447 42.2547 27.0613 42.2547 28.116V31H41.1767ZM52.542 30.062C51.814 30.7993 50.9134 31.168 49.84 31.168C48.7667 31.168 47.8707 30.7993 47.152 30.062C46.4427 29.3247 46.088 28.4333 46.088 27.388C46.088 26.352 46.4474 25.4653 47.166 24.728C47.894 23.9813 48.7947 23.608 49.868 23.608C50.9414 23.608 51.8374 23.9767 52.556 24.714C53.2747 25.4513 53.634 26.3427 53.634 27.388C53.634 28.424 53.27 29.3153 52.542 30.062ZM49.868 30.202C50.6427 30.202 51.2774 29.9313 51.772 29.39C52.276 28.8487 52.528 28.1813 52.528 27.388C52.528 26.604 52.2667 25.9367 51.744 25.386C51.2307 24.8353 50.596 24.56 49.84 24.56C49.0654 24.56 48.4307 24.8353 47.936 25.386C47.4414 25.9273 47.194 26.5947 47.194 27.388C47.194 28.172 47.4507 28.8393 47.964 29.39C48.4774 29.9313 49.112 30.202 49.868 30.202Z" fill="#DBE2E4"/>
<path d="M56.204 31V23.762H57.282V25.652C57.562 25.0267 57.9587 24.5273 58.472 24.154C58.9853 23.7807 59.5733 23.608 60.236 23.636V24.798H60.152C59.3213 24.798 58.6353 25.0873 58.094 25.666C57.5527 26.2447 57.282 27.0613 57.282 28.116V31H56.204ZM62.2074 27.822C62.282 28.5593 62.5574 29.1473 63.0334 29.586C63.5187 30.0153 64.0927 30.23 64.7554 30.23C65.6234 30.23 66.384 29.8893 67.0374 29.208L67.7094 29.81C66.8974 30.7153 65.9034 31.168 64.7274 31.168C63.71 31.168 62.8514 30.818 62.1514 30.118C61.4607 29.4087 61.1154 28.4987 61.1154 27.388C61.1154 26.3333 61.4467 25.442 62.1094 24.714C62.772 23.9767 63.598 23.608 64.5874 23.608C65.6234 23.608 66.4447 23.972 67.0514 24.7C67.658 25.428 67.9614 26.3427 67.9614 27.444C67.9614 27.584 67.9567 27.71 67.9474 27.822H62.2074ZM62.2074 26.954H66.8694C66.804 26.254 66.5707 25.6753 66.1694 25.218C65.7774 24.7513 65.2407 24.518 64.5594 24.518C63.9434 24.518 63.416 24.7467 62.9774 25.204C62.5387 25.6613 62.282 26.2447 62.2074 26.954ZM72.2425 31.14C71.7199 31.14 71.1879 31.0467 70.6465 30.86C70.1145 30.664 69.6479 30.4027 69.2465 30.076L69.7925 29.306C70.6139 29.922 71.4492 30.23 72.2985 30.23C72.7372 30.23 73.0965 30.1227 73.3765 29.908C73.6565 29.6933 73.7965 29.4087 73.7965 29.054C73.7965 28.7273 73.6425 28.4753 73.3345 28.298C73.0359 28.1207 72.5879 27.948 71.9905 27.78C71.6265 27.6773 71.3372 27.584 71.1225 27.5C70.9079 27.416 70.6652 27.2993 70.3945 27.15C70.1239 26.9913 69.9232 26.7953 69.7925 26.562C69.6619 26.3193 69.5965 26.0347 69.5965 25.708C69.5965 25.092 69.8252 24.5927 70.2825 24.21C70.7492 23.8273 71.3419 23.636 72.0605 23.636C72.9939 23.636 73.8619 23.902 74.6645 24.434L74.1745 25.246C73.4559 24.7793 72.7419 24.546 72.0325 24.546C71.6125 24.546 71.2719 24.6487 71.0105 24.854C70.7585 25.05 70.6325 25.3067 70.6325 25.624C70.6325 25.7547 70.6699 25.876 70.7445 25.988C70.8192 26.1 70.9032 26.1933 70.9965 26.268C71.0899 26.3427 71.2345 26.422 71.4305 26.506C71.6359 26.59 71.7992 26.6507 71.9205 26.688C72.0419 26.7253 72.2332 26.786 72.4945 26.87C72.8399 26.9727 73.1245 27.0707 73.3485 27.164C73.5725 27.2573 73.8105 27.3833 74.0625 27.542C74.3145 27.7007 74.5012 27.9013 74.6225 28.144C74.7532 28.3773 74.8185 28.6527 74.8185 28.97C74.8185 29.642 74.5759 30.174 74.0905 30.566C73.6052 30.9487 72.9892 31.14 72.2425 31.14ZM82.8272 30.062C82.0992 30.7993 81.1985 31.168 80.1252 31.168C79.0519 31.168 78.1559 30.7993 77.4372 30.062C76.7279 29.3247 76.3732 28.4333 76.3732 27.388C76.3732 26.352 76.7325 25.4653 77.4512 24.728C78.1792 23.9813 79.0799 23.608 80.1532 23.608C81.2265 23.608 82.1225 23.9767 82.8412 24.714C83.5599 25.4513 83.9192 26.3427 83.9192 27.388C83.9192 28.424 83.5552 29.3153 82.8272 30.062ZM80.1532 30.202C80.9279 30.202 81.5625 29.9313 82.0572 29.39C82.5612 28.8487 82.8132 28.1813 82.8132 27.388C82.8132 26.604 82.5519 25.9367 82.0292 25.386C81.5159 24.8353 80.8812 24.56 80.1252 24.56C79.3505 24.56 78.7159 24.8353 78.2212 25.386C77.7265 25.9273 77.4792 26.5947 77.4792 27.388C77.4792 28.172 77.7359 28.8393 78.2492 29.39C78.7625 29.9313 79.3972 30.202 80.1532 30.202ZM88.532 31.154C87.6733 31.154 86.9966 30.8927 86.502 30.37C86.0073 29.838 85.76 29.1333 85.76 28.256V23.762H86.838V27.99C86.838 28.6713 87.0106 29.208 87.356 29.6C87.7106 29.9827 88.2053 30.174 88.84 30.174C89.4653 30.174 89.9833 29.964 90.394 29.544C90.8046 29.124 91.01 28.578 91.01 27.906V23.762H92.074V31H91.01V29.74C90.422 30.6827 89.596 31.154 88.532 31.154ZM94.4989 31V23.762H95.5769V25.652C95.8569 25.0267 96.2536 24.5273 96.7669 24.154C97.2803 23.7807 97.8683 23.608 98.5309 23.636V24.798H98.4469C97.6163 24.798 96.9303 25.0873 96.3889 25.666C95.8476 26.2447 95.5769 27.0613 95.5769 28.116V31H94.4989ZM103.12 31.168C102.075 31.168 101.193 30.7993 100.474 30.062C99.765 29.3153 99.4103 28.424 99.4103 27.388C99.4103 26.352 99.765 25.4653 100.474 24.728C101.193 23.9813 102.075 23.608 103.12 23.608C104.24 23.608 105.206 24.0373 106.018 24.896L105.332 25.624C104.66 24.9147 103.918 24.56 103.106 24.56C102.378 24.56 101.762 24.8353 101.258 25.386C100.764 25.9273 100.516 26.5947 100.516 27.388C100.516 28.172 100.768 28.8393 101.272 29.39C101.786 29.9313 102.42 30.202 103.176 30.202C103.951 30.202 104.679 29.838 105.36 29.11L106.074 29.768C105.234 30.7013 104.25 31.168 103.12 31.168ZM108.295 27.822C108.37 28.5593 108.645 29.1473 109.121 29.586C109.607 30.0153 110.181 30.23 110.843 30.23C111.711 30.23 112.472 29.8893 113.125 29.208L113.797 29.81C112.985 30.7153 111.991 31.168 110.815 31.168C109.798 31.168 108.939 30.818 108.239 30.118C107.549 29.4087 107.203 28.4987 107.203 27.388C107.203 26.3333 107.535 25.442 108.197 24.714C108.86 23.9767 109.686 23.608 110.675 23.608C111.711 23.608 112.533 23.972 113.139 24.7C113.746 25.428 114.049 26.3427 114.049 27.444C114.049 27.584 114.045 27.71 114.035 27.822H108.295ZM108.295 26.954H112.957C112.892 26.254 112.659 25.6753 112.257 25.218C111.865 24.7513 111.329 24.518 110.647 24.518C110.031 24.518 109.504 24.7467 109.065 25.204C108.627 25.6613 108.37 26.2447 108.295 26.954Z" fill="#DBE2E4"/>
</svg>
