<svg width="1000" height="1000" viewBox="0 0 1000 1000" fill="none" xmlns="http://www.w3.org/2000/svg">
<rect width="1000" height="1000" fill="url(#paint0_linear_2343_58250)"/>
<path fill-rule="evenodd" clip-rule="evenodd" d="M422.354 210.222C499.208 189.629 581.095 200.41 650 240.192C698.993 268.478 738.569 309.778 764.754 358.911C752.418 346.517 738.408 335.691 723 326.795C677.063 300.273 622.472 293.086 571.236 306.815C520 320.543 476.317 354.063 449.795 400C423.273 445.937 416.086 500.528 429.815 551.764C443.543 603 477.063 646.683 523 673.205C568.937 699.727 623.528 706.914 674.764 693.185C709.122 683.979 740.084 665.873 764.752 641.091C763.157 644.083 761.509 647.054 759.808 650C720.025 718.905 654.5 769.185 577.646 789.778C500.792 810.371 418.905 799.59 350 759.808C281.095 720.025 230.815 654.5 210.222 577.646C189.629 500.792 200.41 418.905 240.192 350C279.975 281.095 345.501 230.815 422.354 210.222ZM700 153.59C608.126 100.547 498.944 86.1724 396.472 113.63C294.001 141.087 206.633 208.126 153.59 300C100.547 391.874 86.1725 501.056 113.63 603.528C141.087 705.999 208.126 793.367 300 846.41C391.874 899.453 501.056 913.828 603.528 886.37C705.999 858.913 793.367 791.874 846.41 700C899.453 608.126 913.828 498.944 886.37 396.472L838.074 409.413L886.37 396.472C858.913 294.001 791.874 206.633 700 153.59ZM597.118 403.407C622.736 396.543 650.032 400.137 673 413.397C695.968 426.658 712.728 448.5 719.593 474.118C726.457 499.736 722.863 527.032 709.603 550C696.342 572.968 674.5 589.728 648.882 596.593C623.264 603.457 595.968 599.863 573 586.603C550.032 573.342 533.272 551.5 526.407 525.882C519.543 500.264 523.137 472.968 536.397 450C549.658 427.032 571.5 410.272 597.118 403.407Z" fill="url(#paint1_linear_2343_58250)"/>
<defs>
<linearGradient id="paint0_linear_2343_58250" x1="275.63" y1="704.202" x2="1013.29" y2="114.01" gradientUnits="userSpaceOnUse">
<stop stop-color="#141414"/>
<stop offset="1" stop-color="#2C3846"/>
</linearGradient>
<linearGradient id="paint1_linear_2343_58250" x1="99.999" y1="500" x2="900.001" y2="500" gradientUnits="userSpaceOnUse">
<stop stop-color="#E6B78F"/>
<stop offset="0.504575" stop-color="#F8E5D5"/>
<stop offset="1" stop-color="#7D9CC3"/>
</linearGradient>
</defs>
</svg>
